<mxfile host="app.diagrams.net" agent="Mozilla/5.0 (Windows NT 10.0; Win64; x64) AppleWebKit/537.36 (KHTML, like Gecko) Chrome/129.0.0.0 Safari/537.36" version="24.8.3">
  <diagram name="Page-1" id="QtFeZVa8SbwSXmjbJ-oZ">
    <mxGraphModel dx="1867" dy="1167" grid="1" gridSize="10" guides="1" tooltips="1" connect="1" arrows="1" fold="1" page="0" pageScale="1" pageWidth="827" pageHeight="1169" math="0" shadow="0">
      <root>
        <mxCell id="0" />
        <mxCell id="1" parent="0" />
        <mxCell id="jbZVrCwYxk7uXL3ybgNu-1" value="customer" style="shape=umlActor;verticalLabelPosition=bottom;verticalAlign=top;html=1;outlineConnect=0;" vertex="1" parent="1">
          <mxGeometry x="-130" y="130" width="30" height="60" as="geometry" />
        </mxCell>
        <mxCell id="jbZVrCwYxk7uXL3ybgNu-3" value="driver" style="shape=umlActor;verticalLabelPosition=bottom;verticalAlign=top;html=1;" vertex="1" parent="1">
          <mxGeometry x="860" y="140" width="30" height="60" as="geometry" />
        </mxCell>
        <mxCell id="jbZVrCwYxk7uXL3ybgNu-18" value="" style="swimlane;startSize=0;" vertex="1" parent="1">
          <mxGeometry x="-30" y="-10" width="890" height="550" as="geometry" />
        </mxCell>
        <mxCell id="jbZVrCwYxk7uXL3ybgNu-12" value="Generate Payment" style="ellipse;whiteSpace=wrap;html=1;" vertex="1" parent="jbZVrCwYxk7uXL3ybgNu-18">
          <mxGeometry x="550" width="140" height="70" as="geometry" />
        </mxCell>
        <mxCell id="jbZVrCwYxk7uXL3ybgNu-26" value="track driver" style="ellipse;whiteSpace=wrap;html=1;" vertex="1" parent="jbZVrCwYxk7uXL3ybgNu-18">
          <mxGeometry x="230" y="410" width="140" height="70" as="geometry" />
        </mxCell>
        <mxCell id="jbZVrCwYxk7uXL3ybgNu-27" value="take Ride" style="ellipse;whiteSpace=wrap;html=1;" vertex="1" parent="jbZVrCwYxk7uXL3ybgNu-18">
          <mxGeometry x="290" y="60" width="140" height="70" as="geometry" />
        </mxCell>
        <mxCell id="jbZVrCwYxk7uXL3ybgNu-28" value="Complete Journey and Receive Summary" style="ellipse;whiteSpace=wrap;html=1;" vertex="1" parent="jbZVrCwYxk7uXL3ybgNu-18">
          <mxGeometry x="610" y="70" width="140" height="70" as="geometry" />
        </mxCell>
        <mxCell id="jbZVrCwYxk7uXL3ybgNu-29" value="Receive Arrival Notification" style="ellipse;whiteSpace=wrap;html=1;" vertex="1" parent="jbZVrCwYxk7uXL3ybgNu-18">
          <mxGeometry x="600" y="290" width="140" height="70" as="geometry" />
        </mxCell>
        <mxCell id="jbZVrCwYxk7uXL3ybgNu-2" value="sign up&lt;div&gt;&lt;br&gt;&lt;/div&gt;" style="ellipse;whiteSpace=wrap;html=1;" vertex="1" parent="jbZVrCwYxk7uXL3ybgNu-18">
          <mxGeometry x="70" y="170" width="140" height="70" as="geometry" />
        </mxCell>
        <mxCell id="jbZVrCwYxk7uXL3ybgNu-6" value="log in" style="ellipse;whiteSpace=wrap;html=1;" vertex="1" parent="jbZVrCwYxk7uXL3ybgNu-18">
          <mxGeometry x="90" y="90" width="140" height="70" as="geometry" />
        </mxCell>
        <mxCell id="jbZVrCwYxk7uXL3ybgNu-35" value="&lt;div&gt;INCLUDE&lt;/div&gt;&lt;div&gt;&lt;br&gt;&lt;/div&gt;" style="endArrow=none;endSize=12;dashed=1;html=1;rounded=0;entryX=0.5;entryY=0;entryDx=0;entryDy=0;exitX=0;exitY=0.5;exitDx=0;exitDy=0;startArrow=open;startFill=0;endFill=0;" edge="1" parent="jbZVrCwYxk7uXL3ybgNu-18" source="jbZVrCwYxk7uXL3ybgNu-12" target="jbZVrCwYxk7uXL3ybgNu-27">
          <mxGeometry width="160" relative="1" as="geometry">
            <mxPoint x="270" y="130" as="sourcePoint" />
            <mxPoint x="390" y="140" as="targetPoint" />
          </mxGeometry>
        </mxCell>
        <mxCell id="jbZVrCwYxk7uXL3ybgNu-8" value="&amp;nbsp;request driver" style="ellipse;whiteSpace=wrap;html=1;" vertex="1" parent="jbZVrCwYxk7uXL3ybgNu-18">
          <mxGeometry x="60" y="260" width="140" height="70" as="geometry" />
        </mxCell>
        <mxCell id="jbZVrCwYxk7uXL3ybgNu-9" value="set drop-off location" style="ellipse;whiteSpace=wrap;html=1;" vertex="1" parent="jbZVrCwYxk7uXL3ybgNu-18">
          <mxGeometry x="380" y="230" width="140" height="70" as="geometry" />
        </mxCell>
        <mxCell id="jbZVrCwYxk7uXL3ybgNu-10" value="set pickup location" style="ellipse;whiteSpace=wrap;html=1;" vertex="1" parent="jbZVrCwYxk7uXL3ybgNu-18">
          <mxGeometry x="340" y="310" width="140" height="70" as="geometry" />
        </mxCell>
        <mxCell id="jbZVrCwYxk7uXL3ybgNu-36" value="ACCEPT JOB" style="ellipse;whiteSpace=wrap;html=1;" vertex="1" parent="jbZVrCwYxk7uXL3ybgNu-18">
          <mxGeometry x="660" y="180" width="140" height="70" as="geometry" />
        </mxCell>
        <mxCell id="jbZVrCwYxk7uXL3ybgNu-11" value="set rating" style="ellipse;whiteSpace=wrap;html=1;" vertex="1" parent="jbZVrCwYxk7uXL3ybgNu-18">
          <mxGeometry x="420" y="440" width="140" height="70" as="geometry" />
        </mxCell>
        <mxCell id="jbZVrCwYxk7uXL3ybgNu-39" value="" style="endArrow=open;endFill=1;endSize=12;html=1;rounded=0;entryX=0;entryY=0.5;entryDx=0;entryDy=0;" edge="1" parent="jbZVrCwYxk7uXL3ybgNu-18" target="jbZVrCwYxk7uXL3ybgNu-28">
          <mxGeometry width="160" relative="1" as="geometry">
            <mxPoint x="420" y="110" as="sourcePoint" />
            <mxPoint x="580" y="110" as="targetPoint" />
          </mxGeometry>
        </mxCell>
        <mxCell id="jbZVrCwYxk7uXL3ybgNu-40" value="Text" style="edgeLabel;html=1;align=center;verticalAlign=middle;resizable=0;points=[];" vertex="1" connectable="0" parent="jbZVrCwYxk7uXL3ybgNu-39">
          <mxGeometry x="-0.1917" y="4" relative="1" as="geometry">
            <mxPoint as="offset" />
          </mxGeometry>
        </mxCell>
        <mxCell id="jbZVrCwYxk7uXL3ybgNu-45" value="IINCLUDEext" style="edgeLabel;html=1;align=center;verticalAlign=middle;resizable=0;points=[];" vertex="1" connectable="0" parent="jbZVrCwYxk7uXL3ybgNu-39">
          <mxGeometry x="-0.1254" y="3" relative="1" as="geometry">
            <mxPoint as="offset" />
          </mxGeometry>
        </mxCell>
        <mxCell id="jbZVrCwYxk7uXL3ybgNu-46" value="Cancel driver" style="ellipse;whiteSpace=wrap;html=1;" vertex="1" parent="jbZVrCwYxk7uXL3ybgNu-18">
          <mxGeometry x="50" y="460" width="140" height="70" as="geometry" />
        </mxCell>
        <mxCell id="jbZVrCwYxk7uXL3ybgNu-52" value="EXCLUDE" style="endArrow=open;endSize=12;dashed=1;html=1;rounded=0;entryX=0.5;entryY=1;entryDx=0;entryDy=0;exitX=0.5;exitY=0;exitDx=0;exitDy=0;" edge="1" parent="jbZVrCwYxk7uXL3ybgNu-18" source="jbZVrCwYxk7uXL3ybgNu-46" target="jbZVrCwYxk7uXL3ybgNu-8">
          <mxGeometry width="160" relative="1" as="geometry">
            <mxPoint x="10" y="420" as="sourcePoint" />
            <mxPoint x="170" y="420" as="targetPoint" />
          </mxGeometry>
        </mxCell>
        <mxCell id="jbZVrCwYxk7uXL3ybgNu-54" value="" style="endArrow=open;endFill=1;endSize=12;html=1;rounded=0;exitX=1;exitY=0.5;exitDx=0;exitDy=0;entryX=0;entryY=0.5;entryDx=0;entryDy=0;" edge="1" parent="jbZVrCwYxk7uXL3ybgNu-18" source="jbZVrCwYxk7uXL3ybgNu-8" target="jbZVrCwYxk7uXL3ybgNu-10">
          <mxGeometry width="160" relative="1" as="geometry">
            <mxPoint x="190" y="290" as="sourcePoint" />
            <mxPoint x="350" y="290" as="targetPoint" />
          </mxGeometry>
        </mxCell>
        <mxCell id="jbZVrCwYxk7uXL3ybgNu-60" value="INCLUDE" style="edgeLabel;html=1;align=center;verticalAlign=middle;resizable=0;points=[];" vertex="1" connectable="0" parent="jbZVrCwYxk7uXL3ybgNu-54">
          <mxGeometry x="-0.0977" relative="1" as="geometry">
            <mxPoint y="1" as="offset" />
          </mxGeometry>
        </mxCell>
        <mxCell id="jbZVrCwYxk7uXL3ybgNu-53" value="" style="endArrow=open;endFill=1;endSize=12;html=1;rounded=0;exitX=1;exitY=0;exitDx=0;exitDy=0;entryX=0.045;entryY=0.662;entryDx=0;entryDy=0;entryPerimeter=0;" edge="1" parent="jbZVrCwYxk7uXL3ybgNu-18" source="jbZVrCwYxk7uXL3ybgNu-8" target="jbZVrCwYxk7uXL3ybgNu-9">
          <mxGeometry width="160" relative="1" as="geometry">
            <mxPoint x="220" y="214.17000000000002" as="sourcePoint" />
            <mxPoint x="380" y="214.17000000000002" as="targetPoint" />
          </mxGeometry>
        </mxCell>
        <mxCell id="jbZVrCwYxk7uXL3ybgNu-59" value="INCLUDE" style="edgeLabel;html=1;align=center;verticalAlign=middle;resizable=0;points=[];" vertex="1" connectable="0" parent="jbZVrCwYxk7uXL3ybgNu-53">
          <mxGeometry x="0.0994" y="-6" relative="1" as="geometry">
            <mxPoint as="offset" />
          </mxGeometry>
        </mxCell>
        <mxCell id="jbZVrCwYxk7uXL3ybgNu-56" value="EXCLUDE" style="endArrow=open;endSize=12;dashed=1;html=1;rounded=0;entryX=1;entryY=1;entryDx=0;entryDy=0;exitX=0;exitY=0.5;exitDx=0;exitDy=0;" edge="1" parent="jbZVrCwYxk7uXL3ybgNu-18" source="jbZVrCwYxk7uXL3ybgNu-26" target="jbZVrCwYxk7uXL3ybgNu-8">
          <mxGeometry width="160" relative="1" as="geometry">
            <mxPoint x="180" y="438.33000000000004" as="sourcePoint" />
            <mxPoint x="340" y="438.33000000000004" as="targetPoint" />
          </mxGeometry>
        </mxCell>
        <mxCell id="jbZVrCwYxk7uXL3ybgNu-57" value="EXCLUDE" style="endArrow=open;endSize=12;dashed=1;html=1;rounded=0;entryX=1;entryY=0.5;entryDx=0;entryDy=0;exitX=0;exitY=1;exitDx=0;exitDy=0;" edge="1" parent="jbZVrCwYxk7uXL3ybgNu-18" source="jbZVrCwYxk7uXL3ybgNu-27" target="jbZVrCwYxk7uXL3ybgNu-8">
          <mxGeometry width="160" relative="1" as="geometry">
            <mxPoint x="250" y="330" as="sourcePoint" />
            <mxPoint x="410" y="330" as="targetPoint" />
          </mxGeometry>
        </mxCell>
        <mxCell id="jbZVrCwYxk7uXL3ybgNu-30" value="" style="endArrow=open;endFill=1;endSize=12;html=1;rounded=0;entryX=0;entryY=0.5;entryDx=0;entryDy=0;" edge="1" parent="1" source="jbZVrCwYxk7uXL3ybgNu-1" target="jbZVrCwYxk7uXL3ybgNu-24">
          <mxGeometry width="160" relative="1" as="geometry">
            <mxPoint x="-100" y="230" as="sourcePoint" />
            <mxPoint x="60" y="230" as="targetPoint" />
          </mxGeometry>
        </mxCell>
        <mxCell id="jbZVrCwYxk7uXL3ybgNu-24" value="download app" style="ellipse;whiteSpace=wrap;html=1;" vertex="1" parent="1">
          <mxGeometry x="-220" y="290" width="140" height="70" as="geometry" />
        </mxCell>
        <mxCell id="jbZVrCwYxk7uXL3ybgNu-33" value="" style="endArrow=open;endFill=1;endSize=12;html=1;rounded=0;entryX=0;entryY=0.5;entryDx=0;entryDy=0;" edge="1" parent="1" source="jbZVrCwYxk7uXL3ybgNu-1" target="jbZVrCwYxk7uXL3ybgNu-2">
          <mxGeometry width="160" relative="1" as="geometry">
            <mxPoint x="-140" y="180" as="sourcePoint" />
            <mxPoint x="20" y="180" as="targetPoint" />
          </mxGeometry>
        </mxCell>
        <mxCell id="jbZVrCwYxk7uXL3ybgNu-34" value="" style="endArrow=open;endFill=1;endSize=12;html=1;rounded=0;exitX=1;exitY=0.3333333333333333;exitDx=0;exitDy=0;exitPerimeter=0;entryX=0;entryY=0.5;entryDx=0;entryDy=0;" edge="1" parent="1" source="jbZVrCwYxk7uXL3ybgNu-1" target="jbZVrCwYxk7uXL3ybgNu-6">
          <mxGeometry width="160" relative="1" as="geometry">
            <mxPoint x="-140" y="120" as="sourcePoint" />
            <mxPoint x="20" y="120" as="targetPoint" />
          </mxGeometry>
        </mxCell>
        <mxCell id="jbZVrCwYxk7uXL3ybgNu-37" value="" style="endArrow=open;endFill=1;endSize=12;html=1;rounded=0;entryX=1;entryY=0.5;entryDx=0;entryDy=0;exitX=0.256;exitY=0.861;exitDx=0;exitDy=0;exitPerimeter=0;" edge="1" parent="1" source="jbZVrCwYxk7uXL3ybgNu-3" target="jbZVrCwYxk7uXL3ybgNu-36">
          <mxGeometry width="160" relative="1" as="geometry">
            <mxPoint x="620" y="280" as="sourcePoint" />
            <mxPoint x="780" y="280" as="targetPoint" />
          </mxGeometry>
        </mxCell>
      </root>
    </mxGraphModel>
  </diagram>
</mxfile>
